<mxfile host="app.diagrams.net" modified="2024-02-14T07:09:53.132Z" agent="Mozilla/5.0 (Windows NT 10.0; Win64; x64) AppleWebKit/537.36 (KHTML, like Gecko) Chrome/121.0.0.0 Safari/537.36" etag="dhAegKzVEtSnJJmDdWzw" version="23.1.2" type="github">
  <diagram name="Page-1" id="c7558073-3199-34d8-9f00-42111426c3f3">
    <mxGraphModel dx="2073" dy="566" grid="1" gridSize="10" guides="1" tooltips="1" connect="1" arrows="1" fold="1" page="1" pageScale="1" pageWidth="826" pageHeight="1169" background="none" math="0" shadow="0">
      <root>
        <mxCell id="0" />
        <mxCell id="1" parent="0" />
        <mxCell id="2" value="&lt;p style=&quot;margin: 0px; margin-top: 4px; text-align: center; text-decoration: underline;&quot;&gt;&lt;strong&gt;Process 1&lt;br&gt;&lt;/strong&gt;&lt;/p&gt;&lt;hr&gt;&lt;p style=&quot;margin: 0px; margin-left: 8px;&quot;&gt;&amp;nbsp;OGG&lt;/p&gt;Integrated&amp;nbsp;&lt;p style=&quot;margin: 0px; margin-left: 8px;&quot;&gt;Capture&lt;br&gt;&lt;/p&gt;" style="verticalAlign=middle;align=center;overflow=fill;fontSize=12;fontFamily=Helvetica;html=1;rounded=1;fontStyle=1;strokeWidth=3;fillColor=#E6FFCC" parent="1" vertex="1">
          <mxGeometry x="120" y="162" width="160" height="76" as="geometry" />
        </mxCell>
        <mxCell id="bzCF5KX_NoKB2cwFCHfQ-147" style="edgeStyle=orthogonalEdgeStyle;rounded=0;orthogonalLoop=1;jettySize=auto;html=1;entryX=0;entryY=0.5;entryDx=0;entryDy=0;" edge="1" parent="1" target="4">
          <mxGeometry relative="1" as="geometry">
            <mxPoint x="530" y="201" as="sourcePoint" />
          </mxGeometry>
        </mxCell>
        <mxCell id="3" value="&#xa; Oracle&#xa;     Golden Gate &#xa;19.1.0.0.4&#xa;" style="whiteSpace=wrap;align=center;verticalAlign=middle;fontStyle=1;strokeWidth=3;fillColor=#FFFFCC" parent="1" vertex="1">
          <mxGeometry x="358.5" y="160" width="161.5" height="80" as="geometry" />
        </mxCell>
        <mxCell id="bzCF5KX_NoKB2cwFCHfQ-148" style="edgeStyle=orthogonalEdgeStyle;rounded=0;orthogonalLoop=1;jettySize=auto;html=1;exitX=0;exitY=0.75;exitDx=0;exitDy=0;" edge="1" parent="1" source="4">
          <mxGeometry relative="1" as="geometry">
            <mxPoint x="530" y="221" as="targetPoint" />
            <Array as="points">
              <mxPoint x="530" y="221" />
              <mxPoint x="530" y="221" />
            </Array>
          </mxGeometry>
        </mxCell>
        <mxCell id="4" value="KSA OCI B24-eps Oracle database&#xa;Schema GGSKSA&#xa;Table: EPS_TXN_LOG" style="whiteSpace=wrap;align=center;verticalAlign=middle;fontStyle=1;strokeWidth=3;fillColor=#FFFFCC" parent="1" vertex="1">
          <mxGeometry x="621" y="162" width="167" height="78" as="geometry" />
        </mxCell>
        <mxCell id="10" value="&lt;p style=&quot;margin: 0px; margin-top: 4px; text-align: center; text-decoration: underline;&quot;&gt;&lt;strong&gt;&lt;strong&gt;Process&lt;/strong&gt; 3&lt;br&gt;&lt;/strong&gt;&lt;/p&gt;&lt;hr&gt;&lt;p style=&quot;margin: 0px; margin-left: 8px;&quot;&gt;Kafka Handler&lt;br&gt;&lt;/p&gt;" style="verticalAlign=middle;align=center;overflow=fill;fontSize=12;fontFamily=Helvetica;html=1;rounded=1;fontStyle=1;strokeWidth=3;fillColor=#E6FFCC" parent="1" vertex="1">
          <mxGeometry x="120" y="480" width="160" height="80" as="geometry" />
        </mxCell>
        <mxCell id="61" value="Data Extract &#xa;and  copy &#xa;to OGG &#xa;server" style="text;spacingTop=-5;align=center;fontStyle=1;fillColor=#ffe6cc;strokeColor=#d79b00;" parent="1" vertex="1">
          <mxGeometry x="530" y="230" width="80" height="60" as="geometry" />
        </mxCell>
        <mxCell id="69" value="" style="edgeStyle=segmentEdgeStyle;strokeColor=#990000;strokeWidth=2;exitX=0.54;exitY=-0.022;exitDx=0;exitDy=0;exitPerimeter=0;entryX=0;entryY=0.5;entryDx=0;entryDy=0;" parent="1" source="bzCF5KX_NoKB2cwFCHfQ-96" target="2" edge="1">
          <mxGeometry width="100" height="100" relative="1" as="geometry">
            <mxPoint y="310" as="sourcePoint" />
            <mxPoint x="103" y="201" as="targetPoint" />
            <Array as="points">
              <mxPoint y="201" />
            </Array>
          </mxGeometry>
        </mxCell>
        <mxCell id="92" value="" style="edgeStyle=elbowEdgeStyle;elbow=horizontal;strokeColor=#990000;strokeWidth=2" parent="1" edge="1">
          <mxGeometry width="100" height="100" relative="1" as="geometry">
            <mxPoint x="200" y="240" as="sourcePoint" />
            <mxPoint x="199.5" y="314" as="targetPoint" />
            <Array as="points">
              <mxPoint x="199.5" y="274" />
            </Array>
          </mxGeometry>
        </mxCell>
        <mxCell id="bzCF5KX_NoKB2cwFCHfQ-96" value="Data Ingration Staging OGG Server" style="shape=process;whiteSpace=wrap;align=center;verticalAlign=middle;size=0.0475;fontStyle=1;strokeWidth=3;fillColor=#FFCCCC" vertex="1" parent="1">
          <mxGeometry x="-94" y="320" width="174" height="60" as="geometry" />
        </mxCell>
        <mxCell id="bzCF5KX_NoKB2cwFCHfQ-127" value="&lt;p style=&quot;margin: 0px; margin-top: 4px; text-align: center; text-decoration: underline;&quot;&gt;&lt;strong&gt;Process 2&lt;br&gt;&lt;/strong&gt;&lt;/p&gt;&lt;hr&gt;&lt;p style=&quot;margin: 0px; margin-left: 8px;&quot;&gt;Integrated&amp;nbsp;&lt;/p&gt;&lt;p style=&quot;margin: 0px; margin-left: 8px;&quot;&gt;OGG replication&lt;br&gt;&lt;/p&gt;" style="verticalAlign=middle;align=center;overflow=fill;fontSize=12;fontFamily=Helvetica;html=1;rounded=1;fontStyle=1;strokeWidth=3;fillColor=#E6FFCC" vertex="1" parent="1">
          <mxGeometry x="120" y="320" width="160" height="76" as="geometry" />
        </mxCell>
        <mxCell id="bzCF5KX_NoKB2cwFCHfQ-133" value="" style="edgeStyle=elbowEdgeStyle;elbow=horizontal;strokeColor=#990000;strokeWidth=2" edge="1" parent="1">
          <mxGeometry width="100" height="100" relative="1" as="geometry">
            <mxPoint x="440" y="420" as="sourcePoint" />
            <mxPoint x="230" y="470" as="targetPoint" />
            <Array as="points">
              <mxPoint x="230" y="440" />
            </Array>
          </mxGeometry>
        </mxCell>
        <mxCell id="bzCF5KX_NoKB2cwFCHfQ-150" value="" style="edgeStyle=segmentEdgeStyle;strokeColor=#990000;strokeWidth=2;exitX=1;exitY=0.5;exitDx=0;exitDy=0;" edge="1" parent="1" source="10">
          <mxGeometry width="100" height="100" relative="1" as="geometry">
            <mxPoint x="300" y="520" as="sourcePoint" />
            <mxPoint x="400" y="520" as="targetPoint" />
            <Array as="points" />
          </mxGeometry>
        </mxCell>
        <mxCell id="bzCF5KX_NoKB2cwFCHfQ-163" style="edgeStyle=orthogonalEdgeStyle;rounded=0;orthogonalLoop=1;jettySize=auto;html=1;" edge="1" parent="1" source="bzCF5KX_NoKB2cwFCHfQ-151">
          <mxGeometry relative="1" as="geometry">
            <mxPoint x="679.9999999999995" y="519.9850000000001" as="targetPoint" />
          </mxGeometry>
        </mxCell>
        <mxCell id="bzCF5KX_NoKB2cwFCHfQ-151" value="" style="shape=image;verticalLabelPosition=bottom;labelBackgroundColor=default;verticalAlign=top;aspect=fixed;imageAspect=0;image=data:image/png,iVBORw0KGgoAAAANSUhEUgAAAWIAAACVCAYAAABivPBvAAAdSElEQVR4Ae1daZRcxXXmnPyIt3hLsOME24ntHNtZ7CSOkziOkzjghXhJ7BAHL0nIYpzESxxhCQsQNpvFIiIkEDIIJNlGWAKEwCCBBZIwQoAECLFJo2VmpJnRaJvR0vmRn5Xzzej2u327qt7rntdd3TPfjz71lnpV9W599b3bt27dOqVSqTj+KANigBggBtJh4BQKP53wKXvKnhggBoABEjH/EfAfETFADCTGAIk4cQdQI6JGRAwQAyRiEjG1IWKAGEiMARJx4g6gNkRtiBggBkjEJGJqQ8QAMZAYAyTixB1AbYjaEDFADJCIScTUhogBYiAxBkjEiTuA2hC1IWKAGCARk4ipDREDxEBiDJCIE3cAtSFqQ8QAMUAiJhFTGyIGiIHEGCARJ+4AakPUhogBYoBETCKmNkQMEAOJMUAiTtwB1IaoDREDxACJmERMbYgYIAYSY4BEnLgDqA1RGyIGiAESMYmY2hAxQAwkxgCJOHEHUBuiNkQMEAMkYhIxtSFigBhIjAESceIOoDZEbYgYIAZIxCRiakPEADGQGAMk4sQdQG2I2hAxQAyQiEnE1IaIAWIgMQZIxIk7gNoQtSFigBggEZOIqQ0RA8RAYgyQiBN3ALUhakPEADFAIiYRUxsiBoiBxBggESfuAGpD1IaIAWKAREwipjZEDBADiTFAIk7cAdSGqA0RA8QAiZhETG2IGCAGEmOARJy4A6gNURsiBogBEjGJmNoQMUAMJMYAiThxB1AbojZEDBADJGISMbUhYoAYSIwBEnHiDqA2RG2IGCAGSMQkYmpDxAAxkBgDJOLEHUBtiNoQMUAMkIgrFbdlz1H3obm9/DUpg2+sGKRGxQ86MTABDJCIK5UxAj7l69sdf83LgFodtTpioHkMkIhJxKV8gDgImx+ElB1lRyImEZOIJ/CXkiRKEi0DAyRiEjGJmERM+25iDJCIScQk4sSDsAyNimV0t2ZOIiYRk4hJxF2tEQ8ePu5Wbzvi1r004oYOn+jKdyERk4hJxCTiriSvjT0j7rM3763D7xsv2Ok27x7tqnciEZOI64DcjBtfK/4a3/nUYTfznqHqb9ZPhiY0uC69f3+1LJT7o8cPRcuDdjVn7bBb9mQ8XyvenWXGTQ2zHxiO4nbfoePRvu00+ZKIScRRQBcl5VYA++xb67Wdn75wpKkB9tjOkbr3PHNBX7Cs3fuPuTfP2ll95p9+sC+YtxXvzjLDRIwPqMXlucsG3Iy7h9ynFva737pid9f1FYmYRFwHagvyIuetII6PXN9X17Z/u22gqUH2teUDdWX9ybW9wbIWP3awLn8r3pFlhgk3JJu3f3dXtW9eO6PHPbGrmBnigeePFM4bqrtV10nEDRLxzFVDbvW2w1PiV4SAJU8rAPr+q/dUB5zU87oZPUHyjLXh1JmZditlxTQnDG7Jh/Tdl3eflhWTR7feW/tC7T+bGzcciOLhwMgJ9+nv97tXnbdjrD+vXx/Pn0ouJOImiDhVZ7W7Xk1EecetaNs7Lsk0nw/Py7Tju54+HB18ti3IL+3/s7m91ePTZu2KlgM7JIj/j67Z457ssskfK4PJco55AulLpIdH414SMDHp/CTiDp6ZRsAf3VmxY2jEkwXUee8Rk4O9l1dWM/d/8fyear/MWXugevx3t/Q31Ad/uyizNV/902ySB1pSM+3iM42bE8qS2WeUl8R7vrcnt/9IxB1MvBYUJGL/wLJkGzu3Mi3jXNe3fTDTbF4+bYc7lKMJSf3DIyeqBA4N2P61lXxM/RjoNLl8eF6mNGHc5rWPREwizgVJHohS39dEmHdcdlvhOiZ1/sK3xjVXPUmz5LGDheQ7f12mSX9l2YB7ZEetjbHVCwCe33fMwdMDCw7g99qsnLb1H3Vrnjvi+g8Wc8vatf+YW799xD3Td7TpOqWtkBHaL7+ne5svE25lj/aMusd3jRb+mEo7kP7xnGzeACYjfc93TCImEeeCxAecTromRFgkLbvdL+zLNGA46KP8c5ftq5JzzPVMt+UDczIN6r5nD4/ZevX7QNPW+fXxX93Y7/70f3rHfpet3h/Mp59BeV9fMeDeO3t3ta26PphD/v32AbfVEOSCDQeqdV2xZrha1w82HXRvUBONt0d8muHv/Dc39btXTx+fmNL1vu+qPQ5mtd7h8Pvq98AxXP7OUmYdXd6vXLjT6XbaZ/X5hu0j7l9+NFDjDihlvfPS3e4/fjzgYuQ+b10mG3yU5VkcS/9IevOjB13fgePV6394TUbceA7zDpJX0ls3pvcT52QdJ+uqg14PHhwL4Iuk9tmJnm/sybwWfv0745Nq92w9UtOmgRynfU3mv/TtcW8LaJb6faCZhdr6emWj/scCfsTfXlU7kaTrscd2wvE79+2vtuuLS/aOtem8uwar1+R5HxGDxH5DTWxK3lAKe3voneX6tWszW3qoHFxHP8kzNsXS49PnZx/CWDm4B7K2ZeD8v++sl0OorIvuHXI7Bmv7OJRXrn/3vmIfWV/byrpGIq5U3JkL+usAL51k05UNztiX1VEpyrHvHjp/y6xxjbXMNt67NfN0+B01KaO1PWhKsTqxek7a/OVl44Mcf9nlGlL4lobKKErEcJHStkspHy5vf31Tv5t21+DYij4sUDntop0ONm5b51UPZsR31qJ+d8P6zKQi5SG1RAwi1DKRvGfM73P/dceg+3vUOSvzPpH7WGVo2yDn1of6ZdN2OPw7+NbKIXf+qiH3m5ePa/swFckzNoUJBdqu1Ccp7LpfXT7g8GF712X197Egw5ZFIu4i84LtvEbO8TcRf9uK/ELlwhZ1gVqOq5fmeo9XDTlobKHyOuH6Qy+OFJIJ/j6X3d6lm7IFFXrhhV5tlzdZA01aCEAIV0/e4d7yzeG/pUWJGGYSqQcpFqJAKwvJBHK19+Y+lBExSE9W9cEzALZZMSnofwEgu1+9qNY/GivMoIna8vGXXXxppa0o1+bDOT6skgfH+Ktv8+GfxE+eDbsRajdBlPWxG/qczwyEDy7MHFIf0pgZSNuIcWzbZc9pI54iJC4d38hfMAFdTKOQcqdqqokJxCZygB1U5Ic0RHiYIJN8b7qwVmOX60i//7PwR0QT8T8s9S9xvsb8hUcQGmlrI+l1D2dELO0DmcXKgAlD8iLNc6188PlMJsgPjdWWDzOHLnPRo2H52GflXPcdyoLLmdzzpS8OHHNYIafrDU1KaiLmZN0UI1kfeOw1rUVoQOUd23J4Pu5GdbFy3McElMgFbmv4qyxyDWlP//zDbGIPk0HyPNJXnlxlhTJgEtD39HEeEaMtsD1LW357AjEOtHcHyoP5YvtAWKuGN4bUi/SDkeXa+p1gotHP3bGlVqvdZGJy/PDxxokYHz6pA+OiiKshgivJM0inr/T765OISb7BAQugy19JDaYix3qQ8DjzZYXngcjv84trNSrYXeXe711Zr9VBjq+ZnhEk4tRq2WqiiGmReUR8y8bMfIL2WFLTdeYdY6muvBPSPM0aE0w6P7TdvDpw305WwoasnwNp6nKLaJ36+fu31Wrd0PT1/dAx6tUfSHg3+PKSiEnEXmAIWEjEGYmKTCaSfmlpptH+qwn0Ay1Nk4W1PcLuK/d9A1pPImHiKNROTcQ+rwltrwaJhMopcn3hI7XvhPPYc9oGixWIsbz2nn5/a7ZB3j+/rtbmjUm1oiYK6+khtm3bBt85/vlIvyHtGaqfQ9FEjGNfOfoabcRTjLhJxOUS8ScXZoMSs/96cEF7eoUyT1xpzAva9xVuYfpZHGvfUhC+vS/neUT83tmZj2rexKGUGUotEWPRQygvrr/14uzvP+JwxPLae/oDAsKz97EIRMtXyBE+2fDFtvn1OTw+JL/4f+v7seNL7q/V8n2TmiTiKUasMcD47pGIyyVieErIgIa92Mpck632qjhobMhWW0Y5Orymz11K6sojYk2GiPAlzzWTWiKOLXBA+dplDbE0GqlTu/VBxj7Nc8ueUfc2FW5S+gIp3AlhgvDVqd34YtHtfM/C+0bX4wvcTyImEXuBJ4AiEZdLxOKrioGJxQUiZ0nhT6sH7Z6TK8aw9Fmu/8V1fk1Ra20xz4Q8ItZuV3DPkrY1kzZKxJjMk/eMfUx8bbERzGK7WcCrBC50UpdOEZ3Olq9NJlhkYu/Hzq1HzN3P1GvfJGIScRRUJOJyifiXL8j+et8UcDHTfrFiU9WaMnxnfQMfNmchlFgEL03EPvc1/bGAmcJXV9Frloif6o2bJrT/MEwtRetBPgTXl/dHWuRZ+GF/1BOo38bP0BOp0NqLlC15rOeELRv5NBEXmUikjXiKEXfZRIxZdFkLXyT9+IK+sRlxAXW3p9pFLbToQts6xctAvCVA0iG3qW+qJbMwL4RkpYnYN1mnTRwgNKywC5WVd90ScZ5pArEjhEx9K/Vi9cHTRJ7FxySW196DhizPIrUxP3Q8ENyHj7AtI3QO7xhdNhbf2LyaiHFs79tzEvEUI2L4kGoQFTkOTWaAQDQRFSkLebBnlwViN57j/fU7y6o4+y4rtmTLoBEARi9Y+IJxedPPah9lLCTQ9/SxJmKfRoygN7qdWMign2/k2BJxnkas3fvQhlXP+G22tg3WfQ3l2Dx551rrhdx1fuvR4jNf6PxyjD5HEH6RZ4hkNREX0YhhspIykeYti5f2tDtlrImSPhiYTcaaeMyeF9FgMVv/sGepKwDw0kAteDSQYsd24UK7wVRWfTuHat8/FphHT1phUYPIJ7R8F220AW1C7dZE7NOIMREo9SGFK5hvOXCofH3dEnGeRqw/OqgbHg26vNAxNkHVbfZ5JoSeles6LgbK2n8k01yxvForEYit4dNspSxJ4fmi2xUicE3EIbKWMpHiX4ouF54Z+n6nHJOISyLiMjsUf+c0eIoeTxYiBvHqd/Z5Poi8tb+xPIPVXHLflyLsoeRFqolE588jYuTV5hGUBZNBEeLR9eC4USLGM3ZZPQLy2HL1uV1sYc0KOm/sGFHSRH4wBdm8aIfcR6pXRtq8OIe7nP6gwv4d2gKpUSJG+XqhSKMTm772tuIaiZhEXDeQWgG0RsqEKUIP5BBRokzMrOu8OIZ7Vqw+vYcd8oeIvggRI9aFjZMAuysimPnagFCeEglO32+GiPHBhmlAv/+FgXe3MTHQZl/QKbj/YdPWkF1eb1mFen0ff5AoXNd0uxAXw2ezx2pEsetLfp+3hMiqGSLWfuOoIxasSOppd0oiJhF7CaPdQNT1WTcmfc93rG2LGGjP7Q3HaMDz+Dsugx5pyPRRhIhR3r0mTrKUjRVv2kyl41JgEkm/SzNEjOfvfKr+QwR5IAwmwm8iRjL8fqVNSGE6CNndb3si+7eACU8JWwmThp0Hgebqi/SGdj3bf7QmDgfqxSIRlPe15QNjH0vt6ibty4uV3AwRW7MH6kJkPvQNPhh5eNH91KpjEnEHErEOaC4ALZL6tJNWAaeV5epYvL6/vrbuc1SAnyJ2Q2v6CJGSJmLfZJ1uB8hdu9zl9ZcNHWqJOG+yTteN+Qm90WqsbqzCi3kyYPeQ2PNyD/Zw7OCh22GPQXB6ObU860vhc1wkXoYm4iKTddImG6pUt8HnJifPtSslEXcgEU91GzFiEYsmWWTV2BO7Rsc0LJgkQqSqBxS0USkfaWjStJmtkuDzjEGv7ZIy6OHiCD9n3+YCIDUdtzoUBlK/hz7G33744WIRi9QnKTRXRKPDfn36mdAx2ge5a19lKQv+0oi7HVsEYsuFJ8Unbuyvi4cMswo8MGywe/u8Pod7nPQdjvW9vGNsRyWue9DO8S7YETxkmsorr8z7JOKSiBjB5RsKDH/PkAtpPWUTMex+cNnSAz3vGPF8ywQayyp3wUuePOGmhqhzsuIwL3+77iO0Jz588AxqV53dUA+JuCQi1rERRHvIS0OBYgDWvGd99+E+5wMdbHK+/LFrp86Mex746uG19pIt5T155E0iLomIm1lZh6AqocGkbWExwtT3QpNOsAvqfEWPQ23j9clDAOzLzuhLEnFJRAzH9aIEJ/liy2vLHCC+2WlpQyw9fqIzQFqmLFgW+7QTMUAiJhEHPyAkYpJWJ5LWZGwTiZhETCIuCQOTkSD4Tu35GJOISxqENE20B7AkBsp5MmKAREwipkZcEgYmI0Hwndrz4SMRlzQIm/Ga+LVILFw49COCWNFfbI8zuxlkbIJO3+MgbM8gpJwpZxJxSUQc2t9LE5s9jm0l8/bAfmG2DH1ul83KANf7iOn8ecfyPFMSBTHQWgyQiEsiYqxUyyM2ez+0AAMr7mzeIud2t2MZPJetrt0dt0hZWPopz3dSiiW8ssTVl3JFYGsJo5OwMJnaQiIuiYgBikbMCbFYAoidUIQsbZ5Y0B/EYChq5kBox04EuS/kpZUB9mPrxLazTfxAxDBAIi6RiGOCbuTepp21YRot2YTOETmrkXq6La/e9DMkA0RA67b3YntJ0iRiEnHXEBdCL4YIWF8vGmWMBEgC7BQMkIhJxF1BxPAK0WQbO56+Mr5DR6cMPraDHwLBAImYRNwVROybDEVgcN9CGuy6IABnSrLrBgyQiEnEXUFa7zHb/UAj/saKQad359BacmwXim4YmGzj1PqAkIhLImK4omkiKHI8b90BLwlu3l38b7iuJ+Y10c0DG14c+j3lGHvbYfcHOdfp9x4Y9spWy+FnO0YLe5L4PE76DhyvqcOXB9dCOxLjY+F75sndozXlos3YPsvmtVsVwasEOyzDxa/ItvHYYum8uwbd527Z6+Brftai/rFzbBzazE7UWrY8buxDQiIuiYjfcckuLyFocrDH2O3XB9ihwycaLgtl52286KurG65du3bYKw8QIX5Wrjj/4LW9Xtnq97WbavrKiV3DR0DKwyaaobwh7dxnbkEZ2FZIypXUl/f3r9wzlg9121Cnp88Pvz8UgNNm5eO1yMdM2se0MeK18iIRl0TEZS9xxpbvGHxFf9ev92vXtsO78fwv5/XWkdy7Lss+YnZ3YSHEvQdrNVb77qHn5PlQ+rtn3+2WvPszbv3sJVXCHDgUJmLftvVoC3ZY9tWBvfJsW7HVlc0rKzN9HxTIzJYBLdduLW/LtOdF9gy09fC8cVImESckYmzpTdDGQQvysOSAc71xJGzFvjzYyDMmXx+B+cqx11a97XTnTjnF/e+b3lwtv9UaMbRT2w74TOMDbK/j3KcRf2BO/QfN96y9hg9GTI68F8dwEfmQiBMScSzoT5HOmwp5ED/DEgPO79hyuEoOa5474s3zyYX1mqWWWbMa8TlnXOH+7+d+3g1+7pxqG1qtEV8TMM+ETAxWI8b8gU+OuPbR6/vG/nnFgkOFtHotTx43T8gk4oRETI04H7hn37rXSyDYmVoPfGzNbonm5dN2BCfK8Ozch4ajph9sQW/LlPPzjZbYao0YbZW6i6RaI8akpO8ZuPnZ5ewhezwm9bS8eZyP3UZkRCImEXf0AHvN9J46EsEMvwX5Z2/2EzY8AGzeIueHRk+49121p65uENqnPJp2q4k4ZIIQgoX2D6+JXfvHt6nvGcq2q4c3hOST9GXTdjidR8vE996IBqjz8JhE3JGAaGayjhpxHMwIVCTEodMrH6x3Tbv5Ub8J40tL9zWFF/xd13XKMTxdrDYOUmo1ES98xP9+aFfeO+KfgbRfUvhfh8jU56GB52KBqkJl8Xoc4yIfasQlacRvmVUsDoIMBKQk4jhIv7rcb9d8urc+OlzIje315/cECUcGgU2/uMSvXb9uRo8LuaKlJOLtg5n2a98lZJb4yEm7sM8rB14bGqdyDFu8LZ/ncQwXlQ+JuCQihk+nALZoismioh01FfPhQ1VUlrF8D704UljOPjcxKTtGRKmIGP7rMWzcuvFQKTKEDLTfdKxO3mucnEnEJRHxg88fcR+a2xsNWq4DmSMv/noTtH7Qbtnjn2ASUmwkDQXMt7KPxTueH1gFKWWkIuL3Xz2+qEPaYdNGJ/licr1xw+T1Vbdya/c5ibhScXA9KmJawMRRbG+4dndeq+tb99KIe+2M+skyO1jzbJTNtPPS+xvfVcS2S86LmICe23vU+TwvUEaRYPMxIt7aV29KgUxCtljfyrqQjfgProoT8S0bw7ZlkU/RNLQVVzP9y2dqFRAScaXiFgUmenwA/cqyyR18XQ8Q32y7Tya4hrgF+tmJHje6AizULrkODTvUJky+vfPS3d6/8EWWSqPc0MIT1B/avmnG3fWr5ZC/TCIOafn4R+azD8euxWzRIdnyei3hhuRBIq5UgquTZBDr9AuL9wYHdEjI3XodhKDfPXZc5hLr0MQb6v/mnYNRAgm1EbbfUD/AHc33HBZLNOIp4CsD10IxQEIfujKJGC5qvnb5XABD8uH1YmQ6ETmRiCsVB/ufD6y+ayTi7V5ZlUnECzb4+6PISkRosL5+kwA5drCEJufgIfFMwKRgy5Dz0A4iaPeBkdoFKIic5msnrn18QV/dR6NZ0wTaFpr0vO2J5nys5X2ZlkfQJGJqxHWDXgZYKo0YixN8JHVuAbPQ5WvCtuXdJxc7yPutfPqwtx7UDReu2N903LNEduYCv+8xyoOpBeabfYeOO8TAOHVm2N0RrmXSRkknQsSzPXEqRL6fX7zXYY9EqUenMEX8ePOhoGlF5+XxxEiZREyN2DsIMbBSEbFvAQKIY4WKLxEa+PAxFpKx6XUPZwtBtvWHJ+fsc6FzxPHV7YgRXqgM33Wf2WAiRIw2Ilqdry65holoBEGCFwZ2PcHKO7l31qLa99TvzOOJEbDIj0RMIq4hEwEG0hREjGA+QgA2tX/vdVv18Vsv9mubZ8zPNE3Ymm35jZ5bIoa2+wpFYEXKe9V5GeFJfkyk6ffB8USJeCIfHi5vLodsbZ/qcxIxibhu0AtAUhBxaOsjBD6XduWl/xmJNCZk3goiRrtuf7L4AooL7xkaswcLAUvq8w2eKBGjbbBLh+zYUncohXtentx5v3nCJhE3aCN+w8ydhRdt6AUc3XiM5cGhgWmvlzVZ98YL/Nos/IqLDnTYYm375HzppvEYxc1sbSVlSGo1Ymnf4scOuVd6NF15Dn/7bzgZyB9bG8l1SWEikLIkLYOIUVbv8DGHd2+kb/ER3D7g94WW9jFtnoQhOxJxg0Qsg4VprfdEGUSMhTWhCbJQjIcQAYTKwQQdnrl3a2M7oPjKs5N1ui3wTcaWRDAzYKHIq6fvGLPTIrSmnjTER8OWPWdtZsuWMqHN2nw4n4jcH35xxF2xZth9ednAmBlKlAV4bSDOBz5a2LZL2sB0YmQbkx+JuFIZGzAk1lpibVQeeUuAYyDkvdYNcMq2O2RLIiYR1/01bpSEkZ9E3B0DnsTcmf1EIiYRk4hLCvxEkutMkuuGfiERk4hJxCRi2oETY4BETCImEScehN2gsbGNrdX2ScQkYhIxiZgacWIMkIhJxCTixIOQ2mZrtc1ukC+JuFIZc65vxlOAz2Qub9y9gWTSDYTXqW0kEVcqY9GnSKoZqTYji1jg9U4FP9vFj0enYIBEfPJv6ebdo271tiP8NSGDp3rDu190CtDZDpJuJ2OAREz7ICdqiAFiIDEGSMSJO6CTv9JsG7VIYqA9GCARk4ipDREDxEBiDJCIE3cANY72aByUM+XcyRggEZOIqQ0RA8RAYgyQiBN3QCd/pdk2apHEQHswQCImEVMbIgaIgcQYIBEn7gBqHO3ROChnyrmTMUAiJhFTGyIGiIHEGCARJ+6ATv5Ks23UIomB9mCAREwipjZEDBADiTFAIk7cAdQ42qNxUM6UcydjgERMIqY2RAwQA4kxQCJO3AGd/JVm26hFEgPtwQCJmERMbYgYIAYSY4BEnLgDqHG0R+OgnCnnTsYAiZhETG2IGCAGEmOARJy4Azr5K822UYskBtqDARIxiZjaEDFADCTGAIk4cQdQ42iPxkE5U86djAESMYmY2hAxQAwkxgCJOHEHdPJXmm2jFkkMtAcDJGISMbUhYoAYSIwBEnHiDqDG0R6Ng3KmnDsZAyRiEjG1IWKAGEiMgf8H+6ZEq4T3rQAAAAAASUVORK5CYII=;imageBorder=default;" vertex="1" parent="1">
          <mxGeometry x="400" y="480" width="190" height="79.97" as="geometry" />
        </mxCell>
        <mxCell id="bzCF5KX_NoKB2cwFCHfQ-152" value="B24 DB&#xa; Connection " style="text;spacingTop=-5;align=center;fontStyle=1;fillColor=#ffe6cc;strokeColor=#d79b00;" vertex="1" parent="1">
          <mxGeometry x="530" y="162" width="80" height="30" as="geometry" />
        </mxCell>
        <mxCell id="bzCF5KX_NoKB2cwFCHfQ-158" style="edgeStyle=orthogonalEdgeStyle;rounded=0;orthogonalLoop=1;jettySize=auto;html=1;" edge="1" parent="1" source="bzCF5KX_NoKB2cwFCHfQ-153">
          <mxGeometry relative="1" as="geometry">
            <mxPoint x="440" y="420" as="targetPoint" />
          </mxGeometry>
        </mxCell>
        <mxCell id="bzCF5KX_NoKB2cwFCHfQ-153" value="&#xa; Oracle&#xa;     Golden Gate for Big Data&#xa;19.1.0.0.16&#xa;" style="whiteSpace=wrap;align=center;verticalAlign=middle;fontStyle=1;strokeWidth=3;fillColor=#FFFFCC" vertex="1" parent="1">
          <mxGeometry x="360" y="316" width="160" height="80" as="geometry" />
        </mxCell>
        <mxCell id="bzCF5KX_NoKB2cwFCHfQ-156" value="" style="edgeStyle=segmentEdgeStyle;strokeColor=#990000;strokeWidth=2;exitX=1;exitY=0.5;exitDx=0;exitDy=0;" edge="1" parent="1" source="bzCF5KX_NoKB2cwFCHfQ-127">
          <mxGeometry width="100" height="100" relative="1" as="geometry">
            <mxPoint x="290" y="357" as="sourcePoint" />
            <mxPoint x="360" y="357.40999999999997" as="targetPoint" />
            <Array as="points" />
          </mxGeometry>
        </mxCell>
        <mxCell id="bzCF5KX_NoKB2cwFCHfQ-157" value="" style="edgeStyle=segmentEdgeStyle;strokeColor=#990000;strokeWidth=2;exitX=1;exitY=0.5;exitDx=0;exitDy=0;" edge="1" parent="1">
          <mxGeometry width="100" height="100" relative="1" as="geometry">
            <mxPoint x="278.5" y="200" as="sourcePoint" />
            <mxPoint x="358.5" y="199.40999999999997" as="targetPoint" />
            <Array as="points" />
          </mxGeometry>
        </mxCell>
        <mxCell id="bzCF5KX_NoKB2cwFCHfQ-160" value="Azure Envents Hub&lt;br&gt;" style="text;html=1;align=center;verticalAlign=middle;resizable=0;points=[];autosize=1;strokeColor=#d79b00;fillColor=#ffe6cc;fontStyle=1" vertex="1" parent="1">
          <mxGeometry x="425" y="568" width="130" height="30" as="geometry" />
        </mxCell>
        <mxCell id="bzCF5KX_NoKB2cwFCHfQ-161" value="Real-Time Handling&lt;br&gt;" style="text;html=1;align=center;verticalAlign=middle;resizable=0;points=[];autosize=1;strokeColor=#d79b00;fillColor=#ffe6cc;fontStyle=1" vertex="1" parent="1">
          <mxGeometry x="130" y="570" width="140" height="30" as="geometry" />
        </mxCell>
        <mxCell id="bzCF5KX_NoKB2cwFCHfQ-162" value="&lt;h1 style=&quot;text-align: left;&quot; data-pm-slice=&quot;1 1 []&quot;&gt;&lt;font style=&quot;font-size: 18px;&quot;&gt;Stream Real-Time Data on KSA&amp;nbsp; Using OGG_BD&lt;/font&gt;&lt;/h1&gt;" style="text;html=1;align=center;verticalAlign=middle;resizable=0;points=[];autosize=1;fillColor=#f5f5f5;gradientColor=#b3b3b3;strokeColor=#666666;" vertex="1" parent="1">
          <mxGeometry x="120" y="20" width="430" height="70" as="geometry" />
        </mxCell>
        <mxCell id="bzCF5KX_NoKB2cwFCHfQ-164" value="" style="shape=image;verticalLabelPosition=bottom;labelBackgroundColor=default;verticalAlign=top;aspect=fixed;imageAspect=0;image=data:image/png,iVBORw0KGgoAAAANSUhEUgAAAKsAAAA7CAYAAAAEjnpaAAAgAElEQVR4Ae18B1MdSbbm+9cbsftiN6YnXk9Pd8sh4b33CGGFkwAhIRAguHh3gYu/tryv+ja+LBLRRtMOdQzTlCJVebPSnDz55cmTJ0/yX7h/7jlwRzjwX3eEznsy7zmAe7Deg+DOcOAerHdmqO4JvQfrPQbuDAfuwXpnhuqe0Huw3mPgznDgHqx3ZqjuCb0H6z0G7gwH7sF6Z4bqntB7sN5j4M5w4B6sd2ao7gm9B+s9Bu4MB+48WKMo+s3M/j1lfnMjf6EC5OfnePq59N/DnjsL1jAM4XkeXNeF7/uCWUxj+FdPEARwHEeUZV4yU77/Vbn7b584cBOc5D35yXGQfJQA5W+mc5wY/6PPnQQrmUHQyUBGkGkSuJ9jCvPJMvJNRpLZt8HMz7X7n5ZO3kkAkm83A8eB35kmhQjHi/kliH8vP+4sWMkIBjKBgQz6JWYwz80yjJOpv1Tu9zL3P7Uc+XWTl4zL35KffN+Uqvz+R/l8Z8EqGUQGyEDwMf1zj2SyZBx/k6m3Mes/1+Z/YvqPeU8eSiFAgHKl4m/Jb/KXef7ocyfByk6TERKcjMs0Gf8cYyQ4JWBluc/lv0//KQckj/kmP8lLvm/+Jmj5W6b9W4P1JpEkVHbmp13/7SlkjmVZ17OXNbC9f/XwO2c8A8vL55fKyXx/vTf5+fM8Jc8oKBj4hFG85KuqikwmA9u2RToBy3Bbz61KVnaCQGAnSPTx8TFOTk5wenqCk5NjGIYuQOv7AaIQIsjVgWUFqPkBcmn/BEKJRebZ30+iqakZKysJmKaFIGDZuG2wQupHIenw4Ic+QkRwXBdjI6N48bwXx4dH8F0q/IDHJYwS4AbgSYsMZLSMSxqv066GM4jksDISIgx8IArEm/FI9CnOw3Y4uH7gIAwiBF5cfwjS6cQ1RkDgkw+hSIsQMiob+eHEZCdECEWf2W9m/ERDgDCKi/sR2/AQwUcQ8k3OsK+y7ghhRAD6CCMHUWSJutkdMigUdbNvrJ8vSlMf2dwFXo68RGVVI9rbu7Czs3PNM6liERPk3x95bg2scqZxVuXzeXR1daG0tFS8e3u7UVtXhYmJMWSzGeiaAdfx4ToBPJeDCriuL6Sl7ZiIQIWdeg53kdx5xoFjHgQE6wFqamqxvr4pgGrbNF+F8QCTKZaJXPoCS8uLyOsKnNCHZhr4uLSEmclpmIqOwKFkCGG6Hky2c6V3cTLIvvDN35yAUkqYpnk9IR3XgxdGsBwPfhCvHoHnwrV0hJ4N21Bh6Sp8j2adCF4QwfFDqKaK3eQaLk6zsBSa0izYvgI7yMHzXEReBF2x4Ac27DCLILIROIDvxW0QAGKZJW2+hyj0wXZ910bg2ohCD7auIvIsuLYJh/RHASxfhxPq8CMDip5GEDnwQvI6gu/F0tJxDESw4LoZBN4FQs+HqQbwHB+2oyOIdNEf2wrh+S6C0MTB8RrqmxqwuXUB140EbTd5R/4x/NuAlcwjgVxm0+k0ent7MTY2Bi4NmlbA1vY6yspLsby8LIBpW54Ai2M70DULluVA13UxcJytBK1l2jB0E4W8Ir57rg/HdnF4mEJDfRNWE+uiDt+Ll3UhYAggQ8fq8hIePnmI48tTKJYO3TYFE5VMDpEXwlTiCaNYNgqOC8UwxPJFeiVYqWpomibKEaTsG99MI635QgGKbsL2Ajiuj5A2XMsAKM1dCz77oKswDR26YSKvaNBMG0fHB3je24LpqVmoqg1VU2DZOdjOJQxTh2F4yOd1WLYK0z6DZSswdBeKwm+f6CRoWbdrW1ALedG2a+oCsJ5tIBI0WDBsF6bvwXBU5PVLmF4eOfUClsM2HNiOB9cJYdsOLEtDBBtBkAeQRkB+WiHS51moSha6mRYrpG2H8AIXqpHGysZb1DbUYSWRQkGxBZ8oQQnQ29pcsb5bk6ySKL4J1u7uboyMjMQdc0zs7G7iWXERFhcXhaQkWPd2D/CidwDtbV3o7x/E/v6+AKtlEwhZvH37DsPDI+jp6cXU1Buk01m4joft7V1UV9diNbF2LVm5bHJZDV0Pu4kVNNbV4m9//xtqm+vRPzKEnYN9LC0sYmRwGLZqwDVspI6OMTAyirnEKoZHR/HixQsMDAzg9PQUm5ubIs5+vH//XgCW4D0/PxeTsLOzEx2dXXj7fh6W48OwbJEn8BwhVRG48BwTaysfMTw0iK7ubnR0PcfRyRna25tR9OhrVNQ2oKm9D2vrq8injzA3M4z3c3MYfvUOLR3d+Lg0D0c7wenxPvqHJtD7oh/Nzc2Ynp4WqxB5rRTyWF9NoKujHT1d7ZgYHcbh/g5C34FnathYS2Bk/DUSG5vo6etGx/NWvF+cRqZwjvHXY3jRP4jRsUmcnWZA9cw0dfiBCUBDFKXh2Q6Okmk87+5FfX0Vmlur8ObNFDJpFY5rY+rtCCrrHuOb775BTW0v5uaXkc1mr1d7KU0pAGT8+uNvjNwaWEkIl0yqAQQrB/7ly5dIpy9xcLiPqalXqG+oxcXFuZCGqaNTVFbU4MP8R5yfpzE99UaAo1DIwbYNzM6+FWC9vMhgZ2cPVVU1mJ2dE2W5/NfV1mNjfVPovVQTKFWF/usHcFUFi/Pv8fRZEVY2ErgsZJDXVAwNDKClvhGWYkDLqdjb3UdNQxMel1dgfWsLFxcXaGxsxD//+U8x0ahzb21t4euvvxZ6GL+zX8PDw0IXTx4corahGcur67BdrhS+0BupBjDsb2+iu7Mda6sJXF6msbq+ifcfFnFymMRwTysGxl9j97IAXdegXByiv7kSj4ueYPT9ElLpDHQ1C/tiD0N93egde4XU2TlWVlbQ1NR0tUK52N/bw5upSZyfnuBgbxevx0bwoqcTmfMT2Foefb09+H9ffY3BkXHsHe5jenYSpVXPUFZVgrWNNewnU+juHsDY6DRUxRR9oL7q+Tk49jGSe3uoq2rDm8kZXFwcYy+5iqGhAQwNjqOg5pHXzvF2fgQlFaWYm99FOq1eb7A4mcgTPv9WagDBSsIIVkVRQMnz97//HV999RX+8c3/oL2jFYqaF0Rzye8VErUbhs5lw0cyeYiGhgYsfVxAELiwbANc9tnJQkFFZWU1urufC511by8pJOvHpRUBXoKVuizVgdBxETo2NtcS+Pqb/4HlOyiYGgqGhqnJSdRX18LIqQj9ULRZUVuP2Y/L0Mx4oGZnZ1FXV4e9vT2xhBGgDx48wNDQkJC29fX1ODg4ENIjm8tjYnIa7Z09MCxHLNGOZQqd0VDz2Egso7W5EanDA7ieD9cPkVN0XB6n0FVbgcmFRWSjSCz9buYMY801qKmvxa5qwowimEoOZ8uzaGuowdL+ATTHRaFQwOvXr8VegLzmJoe6qlrICV1yd2sdtVXlYqJ4to7e7i5U1DQgU9ChWSb2U/t49OwBpt9OQTMMmJaPqck5tDb34uI8j0hsVB3oxjlM8wivxyfQ3tIH1/KgqlloxiUWFuZRX9eC84szuIGOxcQUqutqsL5xDs+LxSXxIFXD3yhAP5v91iSrnDmUrrQEcPmkzqppqgDg4ycPRCfZAaWgoqKiGlOTMzg6PMHhwTESiTXU19chsbqMIHRhWQaOjlLY3d1Hcv8QfX0DaGxsFioEgV1f3yg2WIZhCdARwAfJQ2TPzxGZJs5Pj/HP7/+Jw7MUTN+G5bt4MzWNuspqpE/P4Rg2dnf2UdPYhMWNDbhXm6j19XVUVlYKycm+UIdta2tDT08P3r59K5Zh5llJJLCfPMDQyBjaOruhqJrQZ6k7IvKFZD1K7qKtpQltra3Y2d3D8em50HHNXAbTL7rxJrGKMwBe4EE52MVITRkmJl/jMAiR4+bO0nEwPYaelgbM7uxiM3kgJhHBWl1djVwuB8s0kc1c4uwkhaPkPhbnZ9FYV42dzTUQrMODAygpr4XhRmKjdZG7RHFFMeYX5+H5IRw3wOLCBmqq2nCYPINtE220BqjIpDfR2daGkcEpRH6EIHTgBypSx0doauxAYnUFppPH+s4cahrqsH9QAC1VEgtEnVxxycs/+twaWCnySSQDrQF9fX0YHx8X0sYwVIyNv0RVVYUAMnXPhvpm1Nc1oaf7BXqf92FwcEhIr9OzY9iOgbk5SrgGDA4O43lPL8rLK8VvSs+trR3U1tRjZTmBk5MzvH49hefPX6C/bwAbKysIDB3JvR188+0/cHB6BA8BTNfBq1evBFips4ZeKMBdUVeP+UQCbhiKjROX/ZaWFqESsE/cUFHScsNIsBYXF4tVg7+7unvQ2z8klnZVNxB4Hmwz3mBFni1015OjA4yNjqCtvR0lZRVIrG0ge3KMkbZGjH34gKMQcDwb1skhpppqMf76FVIAsjxLdy1czM2g/PEDVD5/ju7BQbS2tgp1ibRwBTtOHaG7qwOD/X1C5ehsaxaSdW97A66pYmRoEE9LqqCYHizPRzqfQUtHMz4sLUA3bbhegKXFTTTWdyN9qYJmKgqLIFSgKnvo7e7Bq5FZuBY3z9RnNaRSh2hsaMfO7jZMN4/E5jtU1VVjayeNq1X/GpcE6U3wXn/4HZFbAyuJ4m6ZkpOSlbodJQDTuLM/SiVRXPwUicSK2NW2t3djcnLm2oSlXu10PS7bhSxKSooxNTUtNk26bmJwYFioAjRTUdrW1NQJaUwVgJOWmysuYfB8oQYcJfeEGnB4moITetBsE5OTkwKsvunA0W0cHhyhsq4ecysrAqxUY7ixIljPzs4EkwlWqifUvz98+CDAwm+GYYrds2F7MG1P7Kh96miuA9+5sgRoitihh4GHdCaLrp5eNDS34Wx/H6+62zA8O4sUTV+2CfsshbdtjXg5PorDCFBo63VtZBbeobWmEomzcxhXHmPkMQUCaZsYH0dHeytMXUXgOkgl99DSWIfdzTW4hoqBF714VlotwOpFEdKFDCprK7C8uhyb0twQy8s76GgbRPpCFbq/79Peq8O2Uhh7+RK9XSNQ8ho8z4TjKWIMG+rbkDxIwglUrO/Mo7yqAhubF/G+4XcA8dcUuTWwSp2VA87dICVPbA0whP6Zz2fQ1NyAoaFBqKqO+blFIV3fzy5AKehCyhEMqdQBcvm0AOvY2Dg0zcDq6jrKyyrQ0tImTFj8TbByg0VbKTdXgR/BdwNEdFVzbBwfJFH07Amm38/gPJeGYuiYfPUaFcWliJwAvu3h6DAFSlaClXZWStJEIiE2MDzM4ENTEfVUgnV3dxcdHR2YmZkRYMnlC1j4uILV9S3kFRVB4MM2dXi2CVMrYHnxg9iNq0oBF5eX6O0bEBYBJX2BmaEX6Bgaxo5CvdGAcZ7Cy4ZKDI2+xEkQQeUpW+DCTG6gq6UBvVNvcJrNCWlKi8rCwgIc28bIy5dobW6Cks8hfX6GiZFhlD0rwt7WuthgUbKWVtRCtwM4YYCL3AXKqkuwvr0m9GjbCTA/v4q2lhc4P81ebVSpCtBkd4K5d+/Q0dKHtZV16FoOJ6e7VxusMVykL+CGGjZ251FUXISt7UtR/tcA7/fkuRWwEqhU9hk44JSsBOrExATyeRq6uYky8WZmSkim87MLmIYjAPu0qBQlJeWoqKjC2tqakMKOa2J3dxslJaWorqpBZ2c3env70Pv8hTBfCclaXYfFhY8wdEtYBHjCIg6K/ADwXDimgYnJcVTUVqKtpxOrG+sCZK0NTcIaENi+mCCNbe1YWFu/PhTY3t4Wu31KT64W7BMlLfVvrhI8naH5qKKiAiWlZXgxMIxsQYVuWsL2StMVQUY768lREr09XSgqeozSsjL0Dw7j6PQMtIHurnxARWMzvi2rwejoS5jZE0z3d2D67QwunfgsC6GLsHCC06M9dA6PoqK2DjU1Nejv7xf6KgXD6ckxOtpa8KzoMepqqoTpamx4AEf7u9ALWbweH0VDczs024Ub+jg8PUBVfTnWtxLifMxyAix/3MTQwAQuzrPidCqChzBSEIYXMHUdS/PrqKqowaOH3+JZyXcYHBzA5WVB6NoE63ZyCY0tjdjYPId7tcH6PWD8pTK3AlY2QsDy4QAzzqWKgUd0uq7A9SxxxEcGM6tHw7xBP9JISEXPoyWB5/1Mo1E8K5Z1x6ELYGz0l8e0PO2ipUCYrMTulcd/PIUhUH0EugZdLcByTGi2DheBOKnxPR++5YjNgm/x5CeC4XowKFWv6Odkoy4o+yH7FfflU99It+O4cINIGN39MIRpGrAMTZwoOaYGNZdGdHXcatm2OOmyXPKjgCgyQKOOHUbQDQ3wNYR2Ot5s2RFsrhjc0BhnCHwTOdVGQTOExYUHEqSPdl/XsYXqQSsE1Y3QtcXmjhPGp4E/8OBHgEP6XAMeT6dgiNMrP/LgelTfQmgqDwK4OWKajihS4NgnYL0kNOKZMnxEMBGEPkzDE4cZbqDCiwowHIOsvxuSVTqWUBIRkBLAtkMmuFchPkLl0s2jVtcNYZm0xRHc8REimcVDgTAkGGNA8jgwri9e7ilBeThA/dW2XDhiB0vJGiF0HMC2BEjECYulwaIpzHNAnTJi24YN16AbWwjTD2CI41bZRuwXwE0BgSvByj4RxFQLCBSGIAwFUHlClMsrsC0LIY8gXQvwXXiWLnRWcRTKzWcUQTMdeAF5pAozj66H0A0dQaDB8TLC5krzj23TbGchAnfYOkyLoPKF9L4pDDzXgWOboETPpS9hqgXRNsHK41bqsl4IWIEPJ7RghzqcSIPpKqA/Ao+JyX8GTkD6BvBQIAzz8P1zwcfQBRyTXlQuPF8VBzem4cMPPYSwYLgX8EIPBnH9yUdIjNlt/ndrklUOLN83pRLtgFQDhONGRPARuPFZtKpSGkTgaRYFGx1PeCrCvL5P5sSGfnE6RceXiIMYe/EwLgPrI4B91xeSFa4jNhumbcAKHJi+I5ZA1h/YDuAGCFxOFh+a7cC8KVmvjo3ZD7mLJTgY5yNBLFcInvVrhiX0P64inmMh8GyhCnC5pw3UMgg2S0hWSmLbt+EGGld5hDaEs41uZ2GHNMRb8C3AtQN4gQUnysL2dZi6D6WgCUFAKU/hQLo0VYXn2OLIlSYzMVEEUG1hDaBkpf8C9VXbp2Q1BFh9mPBp/A98mKYNy4qd2GPpyRUuhyhMI+R40S/B5a7eEZLVdizomiP2In5kQrPO4NFcJ5xybhOeP6zr1sAqJZAc5E/NUGJxSWNPYk+kSKgKMRBjgz5teHRa8QXzArqccVcvDhoCsev+NBnoXBJLQbbBOIHDNw8GELEdegvFGy9OHJpcwkgDIgORZyB0AjhmCOLW9CLYHGThUcRiP7QHsiWGa7CyrSvgss8+pREXSOHIQkBfKc9hgMj3EIpTrVh94Dm8yEvHk9ARWQMCls4klFphfDBBT6zY6yoQRnefOnAQ84u0uLQ6UL0Q/1g3XSYNseTbpobQtxGx4ojtu/DpCceJxCPg0IHrW/CpD4t+xysEeRmPIT2xqCLZAOlxXOEZFnt9BfE3SoaIdAgFC15kIaA/V5z8aehvOXZrYP2XdInOcSA5VDLEgCMIyHyH+iSBRwnJOztBBO/qPJl5ZCAwpfSWyzGZHIcQARz4MATQwSZFs/SvzCDyL4BQiXVWlzt9wPIBJ6K7HEF2hcyrzsif8n3dxxsJN6LXn6/r4ccfPT+b/0d5PvdTlo3fpJjAivlJkx+9r1zHFCD1PW48OXFjF0VKYzG5rnjKOPn42YfLFic/g/Ax/GlnbtJDKq6m6mer/KMf/i3AqmmxV5LrB7BdH7rlgnFKBKlS8B0vvbEPggStlHhkhMgT2ddg5RyJwUq7IZ0ruGlTEbo8mgU0HTDdEIqliE2DANmv5ejV2MkB+0ExmXiV5+Y3+elm2q+Ny7KxROUvOfEJ2iD2VLM0hAF1eUpYB4HYsMaTnfwhQOUqdZN3P6HhHqyfmBuLsXjp4S6fSz6P/4REvfI15gaG5iLJ3E8SNJakBOxNhotz8siKwUoheQ1WSpAcoojHkxfwbBrvedQYicMAN7KvJNRPhuwXEySAfpLxMx8+k/yT4j+XEJf9oUSVgCVYqS7QvTLiSkHnarpa2obgIXlFPZe8ZJzhXz73YP0pWGk92NreAY8rfXrOC+99iDe9+wlGCVJKBnlKRkbzt/zO38wn1QCx+l+DlQND/8wcokCBqZrY2TzG/l4aF5ksFDMLmnEIhl/7/BHQ/do2fpqPrd7k4ae4AOqV07pN64BwXuc18xigctLTMYeHG+QbVYPPPvdg/cRcSlaCi6dd9fUN2NjcFlKVeqtJL/4wttUKAF4xluAkg2k+omSQICbjY9DG10Cos0qwRkKR4n8F+H4Gjp0V7m41la0Y7J/E5tYWDCdPuSRg8GsAKyHzc3mZ9uPwWUD85g9y9rE/MsQbLIKS9k967/NEzPUcFBR6ucVSlEKBvJuamhIndBK8nyXhrwtWXtghc38KVnoOFZeUYnN7R6gBlKzCiE2V4GqZJ5MJToKVJ0hzc3PC6eQmYBknYHn2Q7BykyZMWvKuEBRxKqMqZ6gqr8bsmyXQHOrxL4YECo8NhJFeUMiBupLU18i7GlUBF/ruXvUmzniF0B8BlXkkcGM726d8V9X94osT8tPDGrlK3AwxX2NTH60KAVzfQzqbxcy7tzg5PRWncOQP1YBUKiV8YaVq9anuGzG2eQXWiIbTv84Gi5fi4p2qMKNc2R0NXRcGbjpqFxeXYGNrW9grHS8QhnZVN6Gq8fURSgECkRKV3kZ02WM5/qbEIIjFVRNeH7FyMJwcDJuShWoEzUo+AijC6H6U2sSzolJMTbyHySsYJk9rVLihhZyuQrMM5JWCqJc0crB42EBXPA62bhrIqQVojgVHmKVoDGYfPfHd8T3hN6qaBnTXFidnXhBAVRSYdH4xLHFZUa4S7Bv7QfDQMYWB7fC7BBgBy34aWgGmocDU8/BdE9zx88CFKgA9/HVTh6JrUA0dO8kkqmprkVhbE26OUl9lPeQV+ck22b4MzENa+BYHLLxGZFqweZVH0G+I78xDAcI9hTB0BfGqxGlzc2rdgP+tRP8UawBNKryLRLDSEbmttRlPi4qET+a7d++E+9xyYlWcr+cKKvoGh/H46TM8KSrC8+fPcXh4KM7C6RxDFz06dT958kT4mFKN4PEjz8tLy0pRVvkUHb0NuMzlYTuR2PHTV9X281hZe4fKqqf43//rv1FV1oDO5h4ktzfgOZdInuyjuKYS5bXVKKssF44452dncC2CRMfY6Kjwa3g5Noq65kZ09vXCoz3YpBHfRnJvH+3t7Vjb3EBDazOqGuuwdbAvAJ08PEB1ZRVKnxWjsboWc2/fCSdq0k2nGDqqLy0toaqqSlyypF/F5eXlNWAzV3fanjz6HiVPH6K+ugwrS3MCrATvxuYqqqorsbK6goqqKjwpLsaDJ0/w1df/QGlFJUpKS8V1IoKUqxJ9jemow/bpxknVgF5ytbW1+O6777C0uATbtETfLN1Ab08PGusbUPz0GR4+fCj8IugrcZlJg5ZX2sVjmR8b024FmT9TyZ8CVkpWXcmLS22vJ8YxNfkKmUxaSJGioiIUPX0KAVbDwuT0DCbfzIhlnMwcHBwUXvF0gqbUobcRr54QpJQOlAK8ZrK6uiok6EXmGE3tlXg5/grZvIuCEsAnqKDDizRkC2d4+qQUQy/GEVgRAlPByeFHfPvkGwxPv4IZerjMZcQgjr4cgaFqcG0HA339YqDGJ1/jLJ+BEfnQeVLFWwqWg9TBIZ6VFONR8VMsriVEPZpni7tfxWWlePdmBkZBxdnBERpr60CHGR7fcqX429/+Jvx/eQuA99Do/D06OiqkKdWkwYEBwQdNySLwDHycn0FDTTk2Vj/CMlUsLy/gv//v/xG3DE4vL6FZNi7zBTwpLcPm3r6QdnJlYr30z2W9lJAUBrzGQ3rIb/LxwfcPsLe9C9ewMD/7HuWlZcimM1AKBSEUOLlIK0HKEzBKU4LWDamGfTnZ+qeAlbc9edPzMLmP2uoqrK8lhOJPAJJJtXX12NrZFY7AvPphe75w2lA1DZS89CelFxSXKzKTYKU/500zDJc3Mls1Mng+0IzW9k4YNuD6ERTDhuEX4EY6Uqf7KH1WgdnpBUR2CEe5xPhwM3oGu6CGLszIR0YtILG6irqaGpwfn8BUNLwanxAeT7uHSbpyoODbyJsaPDow6yaSO3soLS9H/8thOFEII/SQs3S8mplG3+AAMpfx5buLwxT6xAXIKbE8f/z4EY8fPxZ84NLPPvJCIL26CGbu3OnltbW1CUPNIvJ0mIVLDPZ2YnLiJUy9gNXEEh49fojZ+TlYtKNGEc4yWZTX1ePg5EycrlGqMhCs5Cf5xfp5XYerEuNc2slXenYllldAqTrY14+Bvj54Dq96e+IOGOk5SqVgOTZUXYtVAQoEntr9jES8raQ/BaxUA6hvrSWWUV9bg5PUkXAqIXMIwrKycqyubwjPdc20kFjfxPziRyF1OPO5PFFHZX4uY/SWp2Qlwzm4BD19PHl/6s27CTS1laOxpRXZggf6uFg+LxfTT0DF/tE2Hj14ineT8/BUB2b2FH1dZRh5PYQzPQ8rCmB4Dnb29lBfW4f1lYRYDl9PvEJzSwvOs2nogYtLS4MZ+oj49w4UTYC1rKICG7vb0D0HedvAhZpH79AA6hob8PbNDBbevcf7yWn0dnYJ90n2gTQTrOwD+0dA8TYtVxwu1QRzfO8ricgz4Rk5eGYe72deob+3E0ohg0TiIx49foSD1BHcIITp+UienKGstgHru0nQI4xSVDhrT0wIdYO/KV0JVi7pBCt5SZ4SrNOTU+Jm68ToGNpb21DI5UF1hA71HBO6gfII13Z5fOvDch1Y/PsIXxCuXx6sdBe0DCFZd7d5faIOhwf74nIbmXN6eobycl73WIdpO1hYWkZVbQNm5xcw/+GDmPUEK2+acsNBB23ObAlWvnldhU7RlMJvZ1+jvqVUSFb6vFgeYHjCNwiGp+D4/BAPvnuC2Z8jzZsAAAeVSURBVKl5IVnV80P0dpRgdHoYed+G5jsCrIcp3jNqxBZ9XU0bQwODaGptwUU+i5xtiLyqR3NCICTr7tY26urrMDM3CyNwkTE15GwdfSNDaG5rxfTUFBZm5zA39QaL7+eQTCYFWOjsTT2c9k/yg6sDb7AyjX2jjy/7n0zuI3QNhHYBrpHF6NBz9Ha3wdDyWE18xMNHD3F4nBJS1fIDpC7SKKtrwFbyKHaytu1rsPKPjxCsUs2iYzknCvnLNOrOnFyWpmNy4hUefPc9Xg4NY2hwUIwHV0OCmieMNl1BecgQhbDph3DlY3Fb0vRmPV8erDS0cMZ5Do4Okuhoa8X62qrwvqIUoSmqvKIC6xub4G3RlrZ2dPb0xpfZHBfz8/NiA0KTC5nJjQg3MnLZ4j3+srIyIR2ol5l2AUMjvKPfDdMGFCP2GbVCE3Zk4Ogkie+/fYi5t4t0CoCrXOLVy1Y0tNdC8RzYCMUufmU1geamJpwdn8JzPYzSI7+9HRklj4JrUQOG5toIHQ+h7WFve0fomqtbGzADD7rvIO+YGJoYxYuBfqQvL4XlLrK9WHW48pzi5Hv06JEAJsFKHZySlQAlcAhqxre3txAFbE/F5UkSL7paMDvzCp5jYGtzDY+fPMLZxYW4pUvf1d3UCcrrGrC6tS2chAhG1kcVg5cNCVapBnCTRZWK/KOEp7M5JataUND/4gXGRkawub6Brc1NcWGR9TAvrQGx05EndFefjko/MLXdhNofj39xsNLsYtI047rI5bLo4x+S6O8XkoTXnZ8+fSq86Le2tsXd+ta2NrS2tQvGEqDUT8lcKXmow3FZ5F0pLmtcjjiYZDDBv76+ivLKUjQ2NcHzY4cY2m4D+mmGHk7PTvHo0WPMTL8VDsW8grKztYrKmgpMTE1C0TRs7+6KCcFdMn1UXcfF8NAQKioroXGgeP2ZHlcR/XEt4YV1kEyKnfze/r4YRP5ZHpqxNre30NHZifGxMdAUlstkMDM9Dd6QpXTihpEbHNLPicdr3uwPN17UYSld+aeYaCHI5zLIpM8xMT4qbs3u7mwLV8qlxQWhNpyencGmKcrzkDo9RVtnJ/oHBq9VAAKWfaLOyolB/ZT6KiUrwcqJQpoaGxowPTUNUzfEakULQUlxiZD2FAykh2oZgclTRo4x419SXyXUvzhY2Qg7QyCRIUdHR8J0wk6XlJSI5Z1KP5dDMpB6GnVSmkgISupUHCiW44ymRKCZhXoeB5h6F/+CCpc21kl1gMynBOHgMEgaCG6qE8xDCU16pL1TSjCaxbgEs7yUIJQ2zE/dTuqWrFeWZ72ceDQJ0czGfrDPDIxvbGwIWmlu406fkpOSicBgnLRTFywv5/WeCnGxkfVzJWEgTwgQSmDyhTojJy/rp3TkxGXfmY/1sk3yiXo8l3S2yT/bRDByEnAycBJwTChVqTezPZZlOfKPKxrzkFdv3ry5rpcmNdLCeth/BvmQVvLzSz1/ClglE9gxdohvppHZ8mEnmU6GkmGMczD5lowkc5mP4JD1yHIyr0xnOdbP73wznW3yt9xMsG2mSVo4yPzO34zf/Mb6JHhZn6xb0sffpJ1lJP03y0s6JR0yH4HCzRTr4Tf2lXn5lpJO9olpzMcg65M08zfzMw/5wzfbkHUwTZZlnPklH5mHbTBN1svfnNhUuThRmZdtcZLQdEUJzTaYn+3c5LEc09t+/ylgZcclMG52UA4mO0xGEHCM85FMI5PITOYVtr0riSTBxLr5jQPBvHzL34yTibId/pbty3ysR8bZvvwu65ADKQeTeeUAMQ/jLMPAb8xHOviNabLfbEf2jXnYFvNxU0ipyDjTGeTAy9+sS04GvuV3yQP+Zh45CSV9pOcmDfzNwD4xD+Myr6SfaWyX6VxFuMLwMIZ0Ur+mJObfA5NSXNIi6ebvL/X8KWAlI/lIRvAtB49MYZzSiG92loF5yFTGmYdvOXgSQKyXgyzr4pt5mM7yHACWkwPB9JvfZX3yzXaYl4Fpkk5ZH78z/cc0yXLML9uQ9Mqy8ptMp5Qm7VRhqL/ysiHrkfmZj2XYHtNkIG2MM6+kj2msiw+/SRr5nUHSyzi/880y8jfrIu+ksOCb+chnCghKfwKVqgEtFZSubIN18JF94pvhSz1fHKwknowkQ34cyCAyRTKQb8kEMlIGpktGyDQ5aMzPQAZL5stvkvmyHf7mANxkMmnib37jI2lhGQbWKemW9fMtvzM/g6yD3wStV/XeLM82SCvzM87NoUyThxySdrZJnZHSjfXJcizLuKSF+Zgm25W08i3zSPDIvPLNemV+WS9/y7Y4bpTWpIN5ZR9lOckzWR/rYPxLPV8crCRcMpsdYZydkm/JaDKWQTKK3yXIWIdkJhkm65RgkmVlXbJ+CQQ5aDKddZAWlpft8c2H35jO9hmYLnVlWY/sB7/zYR5JuxwsWZ7fmXazDPNyJWFbLCuD7C/zMo1v2W9JO9+yLvlN0snyfJgu85MHkm7x8Wo8mJfpsqysl/mZJn9L/ZsrAYHLb2xfBv6Wdf24Hdnebb3/FLDeFrH39fy1OXAP1r/2+N+p3t+D9U4N11+b2Huw/rXH/071/v8DpZFfJvqVOKAAAAAASUVORK5CYII=;labelBorderColor=default;fontColor=default;html=1;shadow=1;imageBorder=default;strokeWidth=2;perimeterSpacing=1;" vertex="1" parent="1">
          <mxGeometry x="680" y="490.48" width="171" height="59" as="geometry" />
        </mxCell>
      </root>
    </mxGraphModel>
  </diagram>
</mxfile>
